# xmcd
#
# Track frame offsets:
#	150
#	15497
#	33295
#	44925
#	62490
#	79105
#	95972
#	107980
#	123475
#	140510
#	155050
#	172500
#	191540
#	207242
#	223115
#
# Disc length: 3180
#
# Revision: 1
# Processed by: cddbd v1.5.1PL0 Copyright (c) Steve Scherf et al.
# Submitted via: CDex 1.50beta9
# Normalized: r0:TDELIM( - )
#
DISCID=d70c6a0f
DTITLE=Various Artist - CDX Volume 165 - July 1997
DYEAR=1997
DGENRE=Country
TTITLE0=The Flying Burrito Brothers - California Jukebox
TTITLE1=Victoria Shaw - Don't Move
TTITLE2=Kevin Sharp - If You Love Somebody
TTITLE3=Steve Azar - I Go Crazy
TTITLE4=Jason Sellers - I'm Your Man
TTITLE5=Kentucky Headhunters - Kentucky Wildcat
TTITLE6=Rich McCready - Let Me Take That Ol' Heartache
TTITLE7=Dean Miller - Nowhere USA
TTITLE8=Bellamy Brothers - Over The Line
TTITLE9=Seminole - She Knows Me By Heart
TTITLE10=Chely Wright - Shut Up And Drive
TTITLE11=Michael Martin Murphey - Tennessee Stud
TTITLE12=Mark Chesnutt - Thank God For Believers
TTITLE13=Vince Gill - You And You Alone
TTITLE14=Dallas County Line - You're Too Good Lookin' (To Still Be Lookin')
EXTD=YEAR: 1997
EXTT0=
EXTT1=
EXTT2=
EXTT3=
EXTT4=
EXTT5=
EXTT6=
EXTT7=
EXTT8=
EXTT9=
EXTT10=
EXTT11=
EXTT12=
EXTT13=
EXTT14=
PLAYORDER=
